# Blender v2.91.0 OBJ File: 'Master.blend'
# www.blender.org
mtllib Wall_modules.mtl
g Floor
v 0.000000 0.000000 0.000000
v 2.000000 0.000000 0.000000
v 0.000000 0.000000 -2.000000
v 2.000000 0.000000 -2.000000
vt 0.831832 0.619733
vt 0.986683 0.619733
vt 0.986683 0.774585
vt 0.831832 0.774585
vn 0.0000 1.0000 0.0000
usemtl Wall_mat
s off
f 1/1/1 2/2/1 4/3/1 3/4/1
g Wall
v 0.000000 0.000000 0.000000
v 0.000000 5.000000 -2.000000
v 0.000000 0.000000 -2.000000
v 0.000000 5.000000 0.000000
v -2.000000 5.000000 -2.000000
v -2.000000 5.000000 0.000000
vt 0.010531 0.012887
vt 0.165383 0.012887
vt 0.165383 0.400015
vt 0.010531 0.400015
vt 0.165383 0.400015
vt 0.165383 0.554867
vt 0.010531 0.554867
vt 0.010531 0.400015
vn 1.0000 0.0000 0.0000
vn 0.0000 1.0000 0.0000
usemtl Wall_mat
s off
f 5/5/2 7/6/2 6/7/2 8/8/2
f 8/9/3 6/10/3 9/11/3 10/12/3
g CornerOut
v 0.000000 0.000000 2.000000
v 0.000000 5.000000 0.000000
v 0.000000 0.000000 0.000000
v 0.000000 5.000000 2.000000
v -2.000000 5.000000 0.000000
v -2.000000 0.000000 0.000000
v -2.000000 5.000000 2.000000
v -2.000000 0.000000 -2.000000
v 2.000000 0.000000 2.000000
v 2.000000 0.000000 0.000000
v 0.000000 0.000000 -2.000000
v 2.000000 0.000000 -2.000000
v -2.000000 5.000000 0.000000
v -2.000000 5.000000 2.000000
vt 0.830837 0.021568
vt 0.985687 0.020925
vt 0.987295 0.408050
vt 0.832445 0.408694
vt 0.668672 0.402409
vt 0.668672 0.015281
vt 0.823524 0.015281
vt 0.823524 0.402409
vt 0.833089 0.563543
vt 0.678239 0.564187
vt 0.677595 0.409337
vt 0.332299 0.781930
vt 0.177447 0.781930
vt 0.177447 0.627079
vt 0.332299 0.627079
vt 0.177447 0.936782
vt 0.022596 0.936782
vt 0.022596 0.781930
vt 0.022596 0.627079
vt 0.007956 -0.195375
vt 0.007956 -0.195375
vt 0.007956 -0.195375
vt 0.007956 -0.195375
vn 1.0000 0.0000 0.0000
vn 0.0000 0.0000 -1.0000
vn 0.0000 1.0000 0.0000
vn 0.0000 0.0000 1.0000
usemtl Wall_mat
s off
f 11/13/4 13/14/4 12/15/4 14/16/4
f 12/17/5 13/18/5 16/19/5 15/20/5
f 14/16/6 12/21/6 15/22/6 17/23/6
f 16/24/6 13/25/6 21/26/6 18/27/6
f 13/25/6 11/28/6 19/29/6 20/30/6
f 13/25/6 20/30/6 22/31/6 21/26/6
f 17/32/7 15/33/7 23/34/7 24/35/7
g CornerIn
v 0.000000 0.000000 0.000000
v 0.000000 5.000000 -2.000000
v 0.000000 0.000000 -2.000000
v 0.000000 5.000000 0.000000
v 2.000000 5.000000 -2.000000
v 2.000000 0.000000 -2.000000
v -2.000000 5.000000 -2.000000
v 0.000000 5.000000 -4.000000
v -2.000000 5.000000 -4.000000
v 2.000000 0.000000 0.000000
vt 0.182743 0.018935
vt 0.337595 0.018935
vt 0.337595 0.406063
vt 0.182743 0.406063
vt 0.492446 0.018935
vt 0.492446 0.406063
vt 0.400461 0.823664
vt 0.400461 0.978515
vt 0.245610 0.978515
vt 0.245610 0.823664
vt 0.338843 0.456096
vt 0.493695 0.456096
vt 0.493695 0.610947
vt 0.338843 0.610947
vn 1.0000 0.0000 0.0000
vn 0.0000 0.0000 1.0000
vn 0.0000 1.0000 0.0000
usemtl Wall_mat
s off
f 25/36/8 27/37/8 26/38/8 28/39/8
f 26/38/9 27/37/9 30/40/9 29/41/9
f 31/42/10 26/43/10 32/44/10 33/45/10
f 27/46/10 25/47/10 34/48/10 30/49/10
g Door
v 0.000000 0.000000 0.000000
v 0.000000 5.000000 -2.000000
v 0.000000 0.000000 -2.000000
v 0.000000 5.000000 0.000000
v -2.000000 5.000000 -2.000000
v -2.000000 5.000000 0.000000
vt 0.505152 0.018920
vt 0.660003 0.018920
vt 0.660003 0.406049
vt 0.505152 0.406049
vt 0.667815 0.628705
vt 0.667815 0.783556
vt 0.512964 0.783556
vt 0.512964 0.628705
vn 1.0000 0.0000 0.0000
vn 0.0000 1.0000 0.0000
usemtl Wall_mat
s off
f 35/50/11 37/51/11 36/52/11 38/53/11
f 38/54/12 36/55/12 39/56/12 40/57/12
g Ceiling
v 0.000000 0.000000 0.000000
v 2.000000 0.000000 0.000000
v 0.000000 0.000000 -2.000000
v 2.000000 0.000000 -2.000000
vt 0.832474 0.786628
vt 0.987326 0.786628
vt 0.987326 0.941479
vt 0.832474 0.941479
vn 0.0000 1.0000 0.0000
usemtl Wall_mat
s off
f 41/58/13 42/59/13 44/60/13 43/61/13
